<?xml version="1.0" standalone="no"?><svg xmlns:xlink="http://www.w3.org/1999/xlink" xmlns="http://www.w3.org/2000/svg" viewBox="0 0 1000 90.90852575488455" preserveAspectRatio="xMaxYMax slice"><g transform="scale(0.8880994671403197)"><rect x="0" y="0" width="1126" height="102.36363636363636" fill="#ffffff"/><rect x="0" y="0" width="102.36" height="102.36" fill="#fffefe"/><rect x="0" y="0" width="102.36" height="102.36" fill="#f7cfb1"/><rect x="102.36363636363636" y="0" width="102.36363636363636" height="102.36363636363636" fill="#ffffff"/><rect x="102.36" y="0" width="51.18" height="51.18" fill="#f7d9c5"/><circle cx="127.95" cy="25.59" r="25.59" fill="#f9dcc7"/><rect x="153.55" y="0" width="51.18" height="51.18" fill="#f9ddc8"/><rect x="153.55" y="0" width="51.18" height="51.18" fill="#fdf7f3"/><rect x="102.36" y="51.18" width="51.18" height="51.18" fill="#fef7f2"/><circle cx="127.95" cy="76.77" r="25.59" fill="#f7dbc8"/><rect x="153.55" y="51.18" width="51.18" height="51.18" fill="#fbe3d2"/><rect x="153.55" y="51.18" width="51.18" height="51.18" fill="#fefaf6"/><rect x="204.73" y="0" width="102.36" height="102.36" fill="#fbe5d4"/><rect x="204.73" y="0" width="102.36" height="102.36" fill="#fefbf8"/><rect x="307.09090909090907" y="0" width="102.36363636363636" height="102.36363636363636" fill="#ffffff"/><rect x="307.09" y="0" width="51.18" height="51.18" fill="#fffefd"/><polygon points="358.27,0 358.27,51.18 307.09,51.18" fill="#fceadc"/><rect x="358.27" y="0" width="51.18" height="51.18" fill="#f7d1b4"/><polygon points="358.27,0 409.45,0 358.27,51.18" fill="#f9e2d3"/><rect x="307.09" y="51.18" width="51.18" height="51.18" fill="#f2c3a2"/><polygon points="307.09,51.18 358.27,51.18 358.27,102.36" fill="#fef5ee"/><rect x="358.27" y="51.18" width="51.18" height="51.18" fill="#fef7f1"/><polygon points="358.27,51.18 409.45,102.36 358.27,102.36" fill="#fadeca"/><rect x="409.45" y="0" width="102.36" height="102.36" fill="#fefcfa"/><rect x="409.45" y="0" width="102.36" height="102.36" fill="#fef8f3"/><rect x="511.82" y="0" width="102.36" height="102.36" fill="#fdf3ec"/><rect x="511.82" y="0" width="102.36" height="102.36" fill="#fceadc"/><rect x="614.1818181818181" y="0" width="102.36363636363636" height="102.36363636363636" fill="#ffffff"/><rect x="614.18" y="0" width="51.18" height="51.18" fill="#fef8f3"/><circle cx="639.77" cy="25.59" r="25.59" fill="#fdf2e9"/><rect x="665.36" y="0" width="51.18" height="51.18" fill="#fdf0e7"/><rect x="665.36" y="0" width="51.18" height="51.18" fill="#fffdfc"/><rect x="614.18" y="51.18" width="51.18" height="51.18" fill="#fdf1e7"/><circle cx="639.77" cy="76.77" r="25.59" fill="#fdf7f3"/><rect x="665.36" y="51.18" width="51.18" height="51.18" fill="#fffdfb"/><rect x="665.36" y="51.18" width="51.18" height="51.18" fill="#f1bd98"/><rect x="716.5454545454545" y="0" width="102.36363636363636" height="102.36363636363636" fill="#ffffff"/><rect x="716.55" y="0" width="51.18" height="51.18" fill="#fffffe"/><path d="M 716.55 51.18 A 51.18 51.18 0 0 1  767.7299999999999 0 L 767.7299999999999 51.18" fill="#fdefe5"/><rect x="767.73" y="0" width="51.18" height="51.18" fill="#fadeca"/><path d="M 767.73 0 A 51.18 51.18 0 0 1 818.91 51.18 L 767.73 51.18" fill="#f5d3bb"/><rect x="716.55" y="51.18" width="51.18" height="51.18" fill="#fcede2"/><path d="M 716.55 51.18 A 51.18 51.18 0 0 0 767.7299999999999 102.36 L 767.7299999999999 51.18" fill="#fce7d7"/><rect x="767.73" y="51.18" width="51.18" height="51.18" fill="#f3c9ac"/><path d="M 767.73 102.36 A 51.18 51.18 0 0 0 818.91 51.18 L 767.73 51.18" fill="#fffdfc"/><rect x="818.91" y="0" width="102.36" height="102.36" fill="#fcede1"/><path d="M 818.91 102.36 A 102.36 102.36 0 0 1  921.27 0 L 818.91 102.36 A 102.36 102.36 0 0 0 921.27 0" fill="#f3c7a8"/><rect x="921.2727272727273" y="0" width="102.36363636363636" height="102.36363636363636" fill="#ffffff"/><rect x="921.27" y="0" width="51.18" height="51.18" fill="#fef8f4"/><polygon points="972.4499999999999,0 972.4499999999999,51.18 921.27,51.18" fill="#fef6f1"/><rect x="972.45" y="0" width="51.18" height="51.18" fill="#fbe4d4"/><polygon points="972.45,0 1023.63,0 972.45,51.18" fill="#fdefe5"/><rect x="921.27" y="51.18" width="51.18" height="51.18" fill="#f7dac6"/><polygon points="921.27,51.18 972.4499999999999,51.18 972.4499999999999,102.36" fill="#fbebdf"/><rect x="972.45" y="51.18" width="51.18" height="51.18" fill="#f9e5d7"/><polygon points="972.45,51.18 1023.63,102.36 972.45,102.36" fill="#fef7f1"/><rect x="1023.6363636363636" y="0" width="102.36363636363636" height="102.36363636363636" fill="#ffffff"/><rect x="1023.64" y="0" width="51.18" height="51.18" fill="#fdf1e8"/><path d="M 1023.64 51.18 A 51.18 51.18 0 0 1  1074.82 0 L 1074.82 51.18" fill="#f9d9c2"/><rect x="1074.82" y="0" width="51.18" height="51.18" fill="#f1bd98"/><path d="M 1074.82 0 A 51.18 51.18 0 0 1 1126 51.18 L 1074.82 51.18" fill="#fef6f1"/><rect x="1023.64" y="51.18" width="51.18" height="51.18" fill="#fbe5d5"/><path d="M 1023.64 51.18 A 51.18 51.18 0 0 0 1074.82 102.36 L 1074.82 51.18" fill="#f7d0b3"/><rect x="1074.82" y="51.18" width="51.18" height="51.18" fill="#fbece2"/><path d="M 1074.82 102.36 A 51.18 51.18 0 0 0 1126 51.18 L 1074.82 51.18" fill="#fffdfc"/></g></svg>