<?xml version="1.0" standalone="no"?><svg xmlns:xlink="http://www.w3.org/1999/xlink" xmlns="http://www.w3.org/2000/svg" viewBox="0 0 1000 1333.3333333333335" preserveAspectRatio="xMaxYMax slice"><g transform="scale(2.7034333603676672)"><rect x="0" y="0" width="369.90000000000003" height="493.20000000000005" fill="#ffffff"/><rect x="0" y="0" width="123.30000000000001" height="123.30000000000001" fill="#ffffff"/><rect x="0" y="0" width="61.65" height="61.65" fill="#fffdfc"/><path d="M 0 0 A 61.65 61.65 0 0 0 61.65 61.65 L 61.65 0" fill="#fadad5"/><rect x="61.65" y="0" width="61.65" height="61.65" fill="#fceeeb"/><path d="M 61.65 61.65 A 61.65 61.65 0 0 0 123.3 0 L 61.65 0" fill="#f9d1ca"/><rect x="0" y="61.65" width="61.65" height="61.65" fill="#fffbfb"/><path d="M 0 123.3 A 61.65 61.65 0 0 1  61.65 61.65 L 61.65 123.3" fill="#f2aa9d"/><rect x="61.65" y="61.65" width="61.65" height="61.65" fill="#f4b6aa"/><path d="M 61.65 61.65 A 61.65 61.65 0 0 1 123.3 123.3 L 61.65 123.3" fill="#f3b3a8"/><rect x="123.30000000000001" y="0" width="123.30000000000001" height="123.30000000000001" fill="#ffffff"/><rect x="123.3" y="0" width="61.65" height="61.65" fill="#fffcfb"/><circle cx="154.125" cy="30.825" r="30.825" fill="#f3b3a7"/><rect x="184.95" y="0" width="61.65" height="61.65" fill="#fdefec"/><rect x="184.95" y="0" width="61.65" height="61.65" fill="#f6c4bb"/><rect x="123.3" y="61.65" width="61.65" height="61.65" fill="#fad4ce"/><circle cx="154.125" cy="92.475" r="30.825" fill="#fceae7"/><rect x="184.95" y="61.65" width="61.65" height="61.65" fill="#fad6d0"/><rect x="184.95" y="61.65" width="61.65" height="61.65" fill="#ffffff"/><rect x="246.60000000000002" y="0" width="123.30000000000001" height="123.30000000000001" fill="#ffffff"/><rect x="246.6" y="0" width="61.65" height="61.65" fill="#fdf1ef"/><circle cx="277.425" cy="30.825" r="30.825" fill="#fce9e6"/><rect x="308.25" y="0" width="61.65" height="61.65" fill="#fbe2de"/><rect x="308.25" y="0" width="61.65" height="61.65" fill="#f4bbb1"/><rect x="246.6" y="61.65" width="61.65" height="61.65" fill="#fef8f7"/><circle cx="277.425" cy="92.475" r="30.825" fill="#fef6f5"/><rect x="308.25" y="61.65" width="61.65" height="61.65" fill="#fef5f4"/><rect x="308.25" y="61.65" width="61.65" height="61.65" fill="#fffcfc"/><rect x="0" y="123.30000000000001" width="123.30000000000001" height="123.30000000000001" fill="#ffffff"/><rect x="0" y="123.3" width="61.65" height="61.65" fill="#fbe2de"/><path d="M 0 184.95 A 61.65 61.65 0 0 0 61.65 123.3 L 0 123.3" fill="#fad3cd"/><rect x="61.65" y="123.3" width="61.65" height="61.65" fill="#f9d2cc"/><path d="M 61.65 123.3 A 61.65 61.65 0 0 0 123.3 184.95 L 123.3 123.3" fill="#fef6f4"/><rect x="0" y="184.95" width="61.65" height="61.65" fill="#fbe8e4"/><path d="M 0 184.95 A 61.65 61.65 0 0 1 61.65 246.6 L 0 246.6" fill="#fcece9"/><rect x="61.65" y="184.95" width="61.65" height="61.65" fill="#fdf0ed"/><path d="M 61.65 246.6 A 61.65 61.65 0 0 1  123.3 184.95 L 123.3 246.6" fill="#fce7e3"/><rect x="123.3" y="123.3" width="123.3" height="123.3" fill="#fdf2f1"/><rect x="123.3" y="123.3" width="123.3" height="123.3" fill="#fdf3f1"/><rect x="246.60000000000002" y="123.30000000000001" width="123.30000000000001" height="123.30000000000001" fill="#ffffff"/><rect x="246.6" y="123.3" width="61.65" height="61.65" fill="#fceae7"/><path d="M 246.6 184.95 A 61.65 61.65 0 0 1 308.25 123.3 L 308.25 138.7125 A 46.2375 46.2375 0 0 0 262.0125 184.95" fill="#f7cbc3"/><rect x="308.25" y="123.3" width="61.65" height="61.65" fill="#f6c5bc"/><path d="M 308.25 123.3 A 61.65 61.65 0 0 1 369.9 184.95 L 354.4875 184.95 A 46.2375 46.2375 0 0 0 308.25 138.7125" fill="#fcebe8"/><rect x="246.6" y="184.95" width="61.65" height="61.65" fill="#fef7f6"/><path d="M 246.6 184.95 A 61.65 61.65 0 0 0 308.25 246.6 L 308.25 231.1875 A 46.2375 46.2375 0 0 1 262.0125 184.95" fill="#fbdbd6"/><rect x="308.25" y="184.95" width="61.65" height="61.65" fill="#f6c7be"/><path d="M 308.25 246.6 A 61.65 61.65 0 0 0 369.9 184.95 L 354.4875 184.95 A 46.2375 46.2375 0 0 1 308.25 231.1875" fill="#fad5cf"/><rect x="0" y="246.60000000000002" width="123.30000000000001" height="123.30000000000001" fill="#ffffff"/><rect x="0" y="246.6" width="61.65" height="61.65" fill="#fdefed"/><path d="M 0 308.25 A 61.65 61.65 0 0 0 61.65 246.6 L 0 246.6" fill="#fdf2f0"/><rect x="61.65" y="246.6" width="61.65" height="61.65" fill="#fef6f4"/><path d="M 61.65 246.6 A 61.65 61.65 0 0 0 123.3 308.25 L 123.3 246.6" fill="#fce8e4"/><rect x="0" y="308.25" width="61.65" height="61.65" fill="#fdeeec"/><path d="M 0 308.25 A 61.65 61.65 0 0 1 61.65 369.9 L 0 369.9" fill="#fce7e4"/><rect x="61.65" y="308.25" width="61.65" height="61.65" fill="#f9d8d2"/><path d="M 61.65 369.9 A 61.65 61.65 0 0 1  123.3 308.25 L 123.3 369.9" fill="#fef4f2"/><rect x="123.3" y="246.6" width="123.3" height="123.3" fill="#fffefe"/><rect x="123.3" y="246.6" width="123.3" height="123.3" fill="#fbdbd6"/><rect x="246.60000000000002" y="246.60000000000002" width="123.30000000000001" height="123.30000000000001" fill="#ffffff"/><rect x="246.6" y="246.6" width="61.65" height="61.65" fill="#fbe8e5"/><path d="M 246.6 308.25 A 61.65 61.65 0 0 0 308.25 246.6 L 246.6 246.6" fill="#fbe7e3"/><rect x="308.25" y="246.6" width="61.65" height="61.65" fill="#fadbd5"/><path d="M 308.25 246.6 A 61.65 61.65 0 0 0 369.9 308.25 L 369.9 246.6" fill="#fceae6"/><rect x="246.6" y="308.25" width="61.65" height="61.65" fill="#fce8e5"/><path d="M 246.6 308.25 A 61.65 61.65 0 0 1 308.25 369.9 L 246.6 369.9" fill="#fdf2f0"/><rect x="308.25" y="308.25" width="61.65" height="61.65" fill="#fbe7e3"/><path d="M 308.25 369.9 A 61.65 61.65 0 0 1  369.9 308.25 L 369.9 369.9" fill="#f9dcd6"/><rect x="0" y="369.90000000000003" width="123.30000000000001" height="123.30000000000001" fill="#ffffff"/><rect x="0" y="369.9" width="61.65" height="61.65" fill="#fbe5e1"/><polygon points="61.65,369.9 61.65,431.54999999999995 0,431.54999999999995" fill="#fceae7"/><rect x="61.65" y="369.9" width="61.65" height="61.65" fill="#fce6e2"/><polygon points="61.65,369.9 123.3,431.54999999999995 61.65,431.54999999999995" fill="#fdf1ee"/><rect x="0" y="431.55" width="61.65" height="61.65" fill="#fbe1dc"/><polygon points="0,431.55 61.65,431.55 0,493.2" fill="#fef8f7"/><rect x="61.65" y="431.55" width="61.65" height="61.65" fill="#f2a99b"/><polygon points="61.65,431.55 123.3,431.55 123.3,493.2" fill="#fce7e4"/><rect x="123.3" y="369.9" width="123.3" height="123.3" fill="#fdf1ef"/><polygon points="123.3,369.9 246.6,369.9 123.3,493.2" fill="#f9d0c9"/><rect x="246.60000000000002" y="369.90000000000003" width="123.30000000000001" height="123.30000000000001" fill="#ffffff"/><rect x="246.6" y="369.9" width="61.65" height="61.65" fill="#f4b5aa"/><polygon points="308.25,369.9 308.25,431.54999999999995 246.6,431.54999999999995" fill="#fdf0ee"/><rect x="308.25" y="369.9" width="61.65" height="61.65" fill="#fdf3f1"/><polygon points="308.25,369.9 369.9,369.9 308.25,431.54999999999995" fill="#fef7f6"/><rect x="246.6" y="431.55" width="61.65" height="61.65" fill="#f5bdb2"/><polygon points="246.6,431.55 308.25,431.55 308.25,493.2" fill="#fdf1ef"/><rect x="308.25" y="431.55" width="61.65" height="61.65" fill="#fcedea"/><polygon points="308.25,431.55 369.9,493.2 308.25,493.2" fill="#fefbfa"/></g></svg>